<?xml version="1.0" standalone="no"?>
<svg viewBox="0 0 200 200" xmlns="http://www.w3.org/2000/svg">
  <path fill="#00376D" d="M33.4,-63.4C41.4,-53.2,44.8,-40.5,45,-29.5C45.3,-18.5,42.6,-9.3,43.2,0.3C43.8,9.9,47.7,19.9,48.8,33.2C49.8,46.5,48,63.2,39.4,69.8C30.7,76.4,15.4,73,2.5,68.8C-10.5,64.5,-20.9,59.4,-31.6,54C-42.3,48.6,-53.1,42.8,-60.1,33.7C-67.1,24.6,-70.1,12.3,-71.2,-0.6C-72.2,-13.5,-71.3,-27.1,-63.1,-34C-54.9,-41,-39.5,-41.4,-27.8,-49.5C-16.1,-57.6,-8,-73.5,2.3,-77.5C12.7,-81.5,25.3,-73.7,33.4,-63.4Z" transform="translate(100 100)" />
</svg>
